<?xml version="1.0" encoding="UTF-8"?>
<svg id="_圖層_2" data-name="圖層_2" xmlns="http://www.w3.org/2000/svg" viewBox="0 0 502.43 51.48">
  <defs>
    <style>
      .cls-1 {
        fill: #004f9e;
      }
    </style>
  </defs>
  <g id="_圖層_6" data-name="圖層_6">
    <g>
      <path class="cls-1" d="M59.3,2.7v47.17h-18.87v-16.71h-21.56v16.71H0V2.7h18.87v16.04h21.56V2.7h18.87Z"/>
      <path class="cls-1" d="M92.85,39.62c5.26,0,8.02-1.08,11.46-3.37l8.62,8.69c-5.53,4.85-12.74,6.54-21.09,6.54-16.85,0-26.62-7.61-26.62-20.48s9.64-20.48,25.2-20.48c13.41,0,23.99,6.6,23.99,19.88,0,1.89-.2,3.17-.54,4.31h-31.47c1.28,3.71,4.78,4.92,10.44,4.92ZM82.6,26.62h15.57c-1.15-2.9-3.57-4.51-7.61-4.51-3.77,0-6.67,1.35-7.95,4.51Z"/>
      <path class="cls-1" d="M165.95,28.64v14.22c0,2.7.47,4.85,1.55,7.01h-18.19c-.67-.74-1.15-1.82-1.15-2.83v-.2c-2.83,2.76-7.61,4.38-13.34,4.38-7.68,0-17.25-3.03-17.25-12.47s9.57-12.47,17.25-12.47c5.73,0,10.51,1.62,13.34,4.38v-2.29c0-3.64-3.71-5.93-10.44-5.93-3.5,0-8.36.61-13.21,2.63l-3.03-11.12c5.53-2.22,13.81-3.3,20.08-3.3,15.36,0,24.39,6.47,24.39,17.99ZM148.43,38.54c-2.16-2.29-5.39-2.9-7.75-2.9-2.7,0-5.59.81-5.59,3.1s2.9,3.1,5.59,3.1c2.36,0,5.59-.61,7.75-2.9v-.4Z"/>
      <path class="cls-1" d="M172.82,49.86V0h18.19v49.86h-18.19Z"/>
      <path class="cls-1" d="M233.26,47.44c-3.71,2.63-9.91,3.91-14.69,3.91-9.77,0-16.78-5.39-16.78-15.57v-11.52h-6.06v-12.13h6.06V3.44h18.19v8.69h12.87v12.13h-12.87v8.62c0,2.7,1.89,4.65,5.32,4.65,1.68,0,3.37-.47,5.73-1.42l2.22,11.32Z"/>
      <path class="cls-1" d="M286.69,27.16v22.71h-18.19v-21.63c0-2.7-1.89-4.65-4.99-4.65-2.49,0-4.78,1.21-7.21,4.45v21.83h-18.19V0h18.19v17.12c3.44-4.25,8.02-6.33,13.88-6.33,10.38,0,16.51,6.81,16.51,16.37Z"/>
      <path class="cls-1" d="M357.7,27.16v22.71h-18.19v-21.63c0-2.7-1.89-4.65-4.99-4.65-2.49,0-4.78,1.21-7.21,4.45v21.83h-18.19V0h18.19v17.12c3.44-4.25,8.02-6.33,13.88-6.33,10.38,0,16.51,6.81,16.51,16.37Z"/>
      <path class="cls-1" d="M390.18,39.62c5.26,0,8.02-1.08,11.46-3.37l8.62,8.69c-5.53,4.85-12.74,6.54-21.09,6.54-16.85,0-26.62-7.61-26.62-20.48s9.64-20.48,25.2-20.48c13.41,0,23.99,6.6,23.99,19.88,0,1.89-.2,3.17-.54,4.31h-31.47c1.28,3.71,4.78,4.92,10.44,4.92ZM379.94,26.62h15.57c-1.15-2.9-3.57-4.51-7.61-4.51-3.77,0-6.67,1.35-7.95,4.51Z"/>
      <path class="cls-1" d="M416.92,49.86V12.13h18.19v5.66c3.17-4.65,8.09-6.6,14.02-6.6v14.69c-7.75,0-12.67,2.83-14.02,8.22v15.77h-18.19Z"/>
      <path class="cls-1" d="M451.22,31c0-12.74,10.04-20.48,25.61-20.48s25.61,7.75,25.61,20.48-10.04,20.48-25.61,20.48-25.61-7.75-25.61-20.48ZM485.31,31c0-4.58-3.5-7.28-8.49-7.28s-8.49,2.7-8.49,7.28,3.57,7.28,8.49,7.28,8.49-2.7,8.49-7.28Z"/>
    </g>
  </g>
</svg>