<?xml version="1.0" encoding="UTF-8"?>
<svg id="_圖層_2" data-name="圖層_2" xmlns="http://www.w3.org/2000/svg" viewBox="0 0 54.38 62.33">
  <defs>
    <style>
      .cls-1 {
        fill: #fbdacb;
      }

      .cls-2 {
        fill: #ff2a2a;
        opacity: .59;
      }
    </style>
  </defs>
  <g id="_圖層_2-2" data-name="圖層_2">
    <g>
      <path class="cls-1" d="M42.75,0l-6.71,12.65s-3.94,1.33-8.63,4.15-5.09,5.09-10.85,5.9-10.59.85-10.59.85c0,0-3.35.72-2.68,1.74s2.01,2.9,6.43,3.03,4.42-1.07,6.97,0c1.02.43,1.41,1.35,1.52,2.3.17,1.5-.38,2.99-1.38,4.12-2.54,2.86-8.99,10.09-12.07,13.27-3.89,4.02-6.43,7.1-3.48,6.83s5.36-1.21,9.78-5.23,5.59-6.47,7.16-6.47-2.11,5.4-2.11,5.4c0,0-5.79,8.84-5.24,10.8,0,0-.16,2.03,1.49,1.72s4.23-3.68,5.71-6.26,3.29-6.5,4.54-6.65-.78,6.34-.78,6.34c0,0-1.52,6.34-.45,7.43.4.41.87.45,1.31.33.78-.21,1.34-.89,1.5-1.68.36-1.8,1.41-4.6,2.49-7.97.94-2.94,2.58-4.23,3.37-3.91s-2.73,8.53-1.91,10.96.97,1.88,1.68,2.11,2.11-1.64,2.43-3.29,5.56-13.15,5.63-12.91,8.53-10.17,10.1-18.86c0,0,.55-2.9,2.58-4.85s3.83-4.62,3.83-4.62L42.75,0Z"/>
      <path class="cls-2" d="M18.15,31.85s6.98-.64,13.22.55,7.07,1.31,5.17,1.31-3.74-.89-4.51,0-14.1.27-15.29,1.16c0,0,1.43-1.59,1.42-3.01Z"/>
    </g>
  </g>
</svg>