<?xml version="1.0" encoding="UTF-8"?>
<svg xmlns="http://www.w3.org/2000/svg" viewBox="0 0 1024 1280">
  <defs>
    <style>
      .cls-1 {
        fill: #b4c5d8;
      }

      .cls-2 {
        opacity: .77;
      }

      .cls-2, .cls-3 {
        fill: #fcfcfc;
      }

      .cls-4 {
        fill: #d13939;
      }

      .cls-5 {
        fill: #e25656;
      }

      .cls-6 {
        fill: #f4f4f4;
      }

      .cls-7 {
        fill: #3e4956;
      }

      .cls-8 {
        fill: #e54539;
      }

      .cls-9 {
        fill: #c6c6c6;
      }

      .cls-10 {
        fill: #fff;
      }

      .cls-11 {
        fill: #d33733;
      }

      .cls-12 {
        fill: none;
        stroke: #2e3a4c;
        stroke-miterlimit: 10;
      }

      .cls-13 {
        fill: #eef4ff;
        opacity: .69;
      }

      .cls-14 {
        fill: #0da0d3;
      }

      .cls-15 {
        fill: #749ac4;
      }
    </style>
  </defs>
  <g id="_圖層_4" data-name="圖層_4">
    <path class="cls-5" d="M597.09,620.24s48.93-14.34,62.14,10.26c16.2,30.18,45.79,160.91,78.13,223.64,32.34,62.73,52.25,70.36,124.75,131.34,84.6,71.15,114.84,106.09-14.76,58.34-119.92-44.17-74.54,34.24-218.09,12.89-178.66-26.58-108.66-82.21-165-36.04-127.05,104.12-131.81-3.68-167.23,28.03s210.9-369.54,244.51-418.2c13.72-19.86,55.56-10.26,55.56-10.26Z"/>
    <path class="cls-4" d="M722.01,1032.12c1.34-2.6,1.54-9.57-11.31-16.1-9.42-4.79-20.15-23.74-32.73-136.74-10.2-91.62-22.52-123.17-19.82-109.77s12.24,104.41,21.72,170.95c13.51,94.75,27.11,92.97,32.88,94.67,2.13.63,7.52.33,9.26-3.02Z"/>
    <path class="cls-4" d="M541.88,778.93c.12-.36,7.46-28.34-1.68-6.22-8.56,20.71-22,100.49-35,147.07-9.56,34.27-30.42,104.4-8.59,53.13,12.02-28.23,25.33-82.59,27.15-108.03,1.88-26.18,11.69-66.25,18.13-85.95Z"/>
  </g>
  <g id="_圖層_2" data-name="圖層_2">
    <g>
      <rect class="cls-15" x="489.34" y="987.51" width="227.69" height="28.17" rx="14.08" ry="14.08"/>
      <rect class="cls-15" x="543.61" y="1152.36" width="117.98" height="12.72" rx="6.36" ry="6.36"/>
      <rect class="cls-1" x="566.73" y="1015.68" width="72.9" height="136.68"/>
      <rect class="cls-1" x="566.73" y="492.18" width="72.9" height="495.33"/>
      <rect class="cls-14" x="550.55" y="492.18" width="104.62" height="266.66"/>
      <polygon class="cls-9" points="605.86 306 601.46 306 601.46 115.11 605.86 118.73 605.86 306"/>
      <path class="cls-15" d="M625.68,457.23v-18.4l-10.01-126.95c0-2.08-1.53-3.77-3.5-4.03-.42-4.42-4.07-7.88-8.51-7.88s-8.09,3.45-8.51,7.86c-2.4.17-4.3,2.18-4.3,4.67l-11.73,126.13v20.06l-34.55,25.75h117.24l-36.12-27.22Z"/>
      <path class="cls-7" d="M547.42,481.21h111.3c1.64,0,2.97,1.33,2.97,2.97v8.32h-117.24v-8.32c0-1.64,1.33-2.97,2.97-2.97Z"/>
      <g>
        <rect class="cls-13" x="543.98" y="492.5" width="117.24" height="495.33"/>
        <line class="cls-12" x1="567.54" y1="558.85" x2="543.98" y2="558.85"/>
        <line class="cls-12" x1="567.54" y1="640.32" x2="543.98" y2="640.32"/>
        <line class="cls-12" x1="567.54" y1="726.02" x2="543.98" y2="726.02"/>
        <line class="cls-12" x1="567.54" y1="809.46" x2="543.98" y2="809.46"/>
        <line class="cls-12" x1="567.54" y1="893.4" x2="543.98" y2="893.4"/>
        <line class="cls-12" x1="557.12" y1="876.9" x2="543.98" y2="876.9"/>
        <line class="cls-12" x1="557.12" y1="860.28" x2="543.98" y2="860.28"/>
        <line class="cls-12" x1="557.12" y1="842.99" x2="543.98" y2="842.99"/>
        <line class="cls-12" x1="557.12" y1="826.22" x2="543.98" y2="826.22"/>
        <line class="cls-12" x1="557.12" y1="793.08" x2="543.98" y2="793.08"/>
        <line class="cls-12" x1="557.12" y1="776.46" x2="543.98" y2="776.46"/>
        <line class="cls-12" x1="557.12" y1="759.17" x2="543.98" y2="759.17"/>
        <line class="cls-12" x1="557.12" y1="742.4" x2="543.98" y2="742.4"/>
        <line class="cls-12" x1="557.29" y1="709.6" x2="544.14" y2="709.6"/>
        <line class="cls-12" x1="557.29" y1="692.98" x2="544.14" y2="692.98"/>
        <line class="cls-12" x1="557.29" y1="675.69" x2="544.14" y2="675.69"/>
        <line class="cls-12" x1="557.29" y1="658.93" x2="544.14" y2="658.93"/>
        <line class="cls-12" x1="557.29" y1="626.24" x2="544.14" y2="626.24"/>
        <line class="cls-12" x1="557.29" y1="609.62" x2="544.14" y2="609.62"/>
        <line class="cls-12" x1="557.29" y1="592.33" x2="544.14" y2="592.33"/>
        <line class="cls-12" x1="557.29" y1="575.57" x2="544.14" y2="575.57"/>
      </g>
      <rect class="cls-7" x="550.55" y="737.93" width="104.62" height="24.27"/>
      <path class="cls-3" d="M659.85,485.59c-1.14.22-.24-1.6-2.47-2.53-1.4-.58-1.68-.32-1.98-.51-.84-.53.83-1.2,3.12-.44s2.37,3.28,1.33,3.48Z"/>
      <path class="cls-3" d="M631.49,490.54c0,.33-17.61.29-41.46.29s-44.16-.27-44.16-.6,20.31-.61,44.16-.61,41.46.59,41.46.92Z"/>
      <ellipse class="cls-2" cx="631.49" cy="516.78" rx="8.91" ry="12.71" transform="translate(-115.22 845.81) rotate(-63.08)"/>
      <circle class="cls-2" cx="581.16" cy="539.53" r="12.71"/>
      <ellipse class="cls-2" cx="629.26" cy="566.15" rx="8.91" ry="12.71" transform="translate(-212.56 477.69) rotate(-35.98)"/>
      <circle class="cls-2" cx="570.63" cy="505.64" r="5.64"/>
      <circle class="cls-2" cx="644.99" cy="542.37" r="4.81"/>
    </g>
  </g>
  <g id="_圖層_3" data-name="圖層_3">
    <g>
      <path class="cls-8" d="M617.4,648.12s39.55-7.66,44.33-15.53c4.78-7.87,0-29.69,0-29.69,0,0-32.56,3.05-46.79,18.7-14.23,15.64,2.46,26.52,2.46,26.52Z"/>
      <path class="cls-11" d="M616.77,633.94c-.97-.28-1.23-1.54-.44-2.17,1.51-1.2,3.5-2.43,5.41-3.27,4.75-2.09,12.41-4.49,15.35-4.27,3.22.25-1.18,1.9-6.25,4.02-4.31,1.8-3.22,2.78-8.61,4.44-2.81.86-4.9,1.21-5.46,1.25h0Z"/>
      <path class="cls-8" d="M585.77,646.2s-37.51-7.34-42.05-14.88c-4.54-7.54,0-28.43,0-28.43,0,0,30.88,2.92,44.37,17.9,13.49,14.98-2.33,25.4-2.33,25.4Z"/>
      <path class="cls-11" d="M588.15,633.94c.97-.28,1.23-1.54.44-2.17-1.51-1.2-3.5-2.43-5.41-3.27-4.75-2.09-12.41-4.49-15.35-4.27-3.22.25,1.18,1.9,6.25,4.02,4.31,1.8,3.22,2.78,8.61,4.44,2.81.86,4.9,1.21,5.46,1.25h0Z"/>
      <path class="cls-8" d="M618.84,633.11c0,13.26-.47,24.01-18.85,24.01s-13.06-10.75-13.06-24.01-5.32-24.01,13.06-24.01,18.85,10.75,18.85,24.01Z"/>
    </g>
  </g>
  <g id="_圖層_5" data-name="圖層_5">
    <g>
      <polygon class="cls-10" points="603.85 566.15 538.64 553.3 538.64 522.01 603.85 522.01 603.85 566.15"/>
      <polygon class="cls-6" points="602.51 566.15 667.72 553.3 667.72 522.01 602.51 522.01 602.51 566.15"/>
    </g>
    <polygon class="cls-6" points="570.78 559.63 564.7 558.43 558.62 522.01 564.7 522.01 570.78 559.63"/>
    <polygon class="cls-6" points="557.29 556.9 551.21 555.79 545.13 522.01 551.21 522.01 557.29 556.9"/>
  </g>
</svg>